<svg width="556" height="25" viewBox="0 0 556 25" fill="none" xmlns="http://www.w3.org/2000/svg">
<path d="M113.795 6.848L110.563 18H108.931L106.339 9.024L103.651 18L102.035 18.016L98.9149 6.848H100.467L102.899 16.304L105.587 6.848H107.219L109.779 16.272L112.227 6.848H113.795ZM123.388 13.28C123.388 13.5573 123.372 13.8507 123.34 14.16H116.332C116.386 15.024 116.679 15.7013 117.212 16.192C117.756 16.672 118.412 16.912 119.18 16.912C119.81 16.912 120.332 16.768 120.748 16.48C121.175 16.1813 121.474 15.7867 121.644 15.296H123.212C122.978 16.1387 122.508 16.8267 121.804 17.36C121.1 17.8827 120.226 18.144 119.18 18.144C118.348 18.144 117.602 17.9573 116.94 17.584C116.29 17.2107 115.778 16.6827 115.404 16C115.031 15.3067 114.844 14.5067 114.844 13.6C114.844 12.6933 115.026 11.8987 115.388 11.216C115.751 10.5333 116.258 10.0107 116.908 9.648C117.57 9.27467 118.327 9.088 119.18 9.088C120.012 9.088 120.748 9.26933 121.388 9.632C122.028 9.99467 122.519 10.496 122.86 11.136C123.212 11.7653 123.388 12.48 123.388 13.28ZM121.884 12.976C121.884 12.4213 121.762 11.9467 121.516 11.552C121.271 11.1467 120.935 10.8427 120.508 10.64C120.092 10.4267 119.628 10.32 119.116 10.32C118.38 10.32 117.751 10.5547 117.228 11.024C116.716 11.4933 116.423 12.144 116.348 12.976H121.884ZM126.766 10.864C127.065 10.3413 127.502 9.91467 128.078 9.584C128.654 9.25333 129.31 9.088 130.046 9.088C130.835 9.088 131.545 9.27467 132.174 9.648C132.803 10.0213 133.299 10.5493 133.662 11.232C134.025 11.904 134.206 12.688 134.206 13.584C134.206 14.4693 134.025 15.2587 133.662 15.952C133.299 16.6453 132.798 17.184 132.158 17.568C131.529 17.952 130.825 18.144 130.046 18.144C129.289 18.144 128.622 17.9787 128.046 17.648C127.481 17.3173 127.054 16.896 126.766 16.384V18H125.31V6.16H126.766V10.864ZM132.718 13.584C132.718 12.9227 132.585 12.3467 132.318 11.856C132.051 11.3653 131.689 10.992 131.23 10.736C130.782 10.48 130.286 10.352 129.742 10.352C129.209 10.352 128.713 10.4853 128.254 10.752C127.806 11.008 127.443 11.3867 127.166 11.888C126.899 12.3787 126.766 12.9493 126.766 13.6C126.766 14.2613 126.899 14.8427 127.166 15.344C127.443 15.8347 127.806 16.2133 128.254 16.48C128.713 16.736 129.209 16.864 129.742 16.864C130.286 16.864 130.782 16.736 131.23 16.48C131.689 16.2133 132.051 15.8347 132.318 15.344C132.585 14.8427 132.718 14.256 132.718 13.584ZM139.691 10.432H137.851V18H136.395V10.432H135.259V9.232H136.395V8.608C136.395 7.62667 136.645 6.912 137.147 6.464C137.659 6.00533 138.475 5.776 139.595 5.776V6.992C138.955 6.992 138.501 7.12 138.235 7.376C137.979 7.62133 137.851 8.032 137.851 8.608V9.232H139.691V10.432ZM142.844 6.16V18H141.388V6.16H142.844ZM149.15 18.144C148.328 18.144 147.582 17.9573 146.91 17.584C146.248 17.2107 145.726 16.6827 145.342 16C144.968 15.3067 144.782 14.5067 144.782 13.6C144.782 12.704 144.974 11.9147 145.358 11.232C145.752 10.5387 146.286 10.0107 146.958 9.648C147.63 9.27467 148.382 9.088 149.214 9.088C150.046 9.088 150.798 9.27467 151.47 9.648C152.142 10.0107 152.67 10.5333 153.054 11.216C153.448 11.8987 153.646 12.6933 153.646 13.6C153.646 14.5067 153.443 15.3067 153.038 16C152.643 16.6827 152.104 17.2107 151.422 17.584C150.739 17.9573 149.982 18.144 149.15 18.144ZM149.15 16.864C149.672 16.864 150.163 16.7413 150.622 16.496C151.08 16.2507 151.448 15.8827 151.726 15.392C152.014 14.9013 152.158 14.304 152.158 13.6C152.158 12.896 152.019 12.2987 151.742 11.808C151.464 11.3173 151.102 10.9547 150.654 10.72C150.206 10.4747 149.72 10.352 149.198 10.352C148.664 10.352 148.174 10.4747 147.726 10.72C147.288 10.9547 146.936 11.3173 146.67 11.808C146.403 12.2987 146.27 12.896 146.27 13.6C146.27 14.3147 146.398 14.9173 146.654 15.408C146.92 15.8987 147.272 16.2667 147.71 16.512C148.147 16.7467 148.627 16.864 149.15 16.864ZM167.24 9.232L164.504 18H163L160.888 11.04L158.776 18H157.272L154.52 9.232H156.008L158.024 16.592L160.2 9.232H161.688L163.816 16.608L165.8 9.232H167.24Z" fill="#666666"/>
<path d="M484.303 15.89H487.963V17H482.938V6.545H484.303V15.89ZM490.118 7.445C489.858 7.445 489.638 7.355 489.458 7.175C489.278 6.995 489.188 6.775 489.188 6.515C489.188 6.255 489.278 6.035 489.458 5.855C489.638 5.675 489.858 5.585 490.118 5.585C490.368 5.585 490.578 5.675 490.748 5.855C490.928 6.035 491.018 6.255 491.018 6.515C491.018 6.775 490.928 6.995 490.748 7.175C490.578 7.355 490.368 7.445 490.118 7.445ZM490.778 8.78V17H489.413V8.78H490.778ZM492.594 12.875C492.594 12.025 492.764 11.285 493.104 10.655C493.444 10.015 493.914 9.52 494.514 9.17C495.124 8.82 495.819 8.645 496.599 8.645C497.609 8.645 498.439 8.89 499.089 9.38C499.749 9.87 500.184 10.55 500.394 11.42H498.924C498.784 10.92 498.509 10.525 498.099 10.235C497.699 9.945 497.199 9.8 496.599 9.8C495.819 9.8 495.189 10.07 494.709 10.61C494.229 11.14 493.989 11.895 493.989 12.875C493.989 13.865 494.229 14.63 494.709 15.17C495.189 15.71 495.819 15.98 496.599 15.98C497.199 15.98 497.699 15.84 498.099 15.56C498.499 15.28 498.774 14.88 498.924 14.36H500.394C500.174 15.2 499.734 15.875 499.074 16.385C498.414 16.885 497.589 17.135 496.599 17.135C495.819 17.135 495.124 16.96 494.514 16.61C493.914 16.26 493.444 15.765 493.104 15.125C492.764 14.485 492.594 13.735 492.594 12.875ZM509.716 12.575C509.716 12.835 509.701 13.11 509.671 13.4H503.101C503.151 14.21 503.426 14.845 503.926 15.305C504.436 15.755 505.051 15.98 505.771 15.98C506.361 15.98 506.851 15.845 507.241 15.575C507.641 15.295 507.921 14.925 508.081 14.465H509.551C509.331 15.255 508.891 15.9 508.231 16.4C507.571 16.89 506.751 17.135 505.771 17.135C504.991 17.135 504.291 16.96 503.671 16.61C503.061 16.26 502.581 15.765 502.231 15.125C501.881 14.475 501.706 13.725 501.706 12.875C501.706 12.025 501.876 11.28 502.216 10.64C502.556 10 503.031 9.51 503.641 9.17C504.261 8.82 504.971 8.645 505.771 8.645C506.551 8.645 507.241 8.815 507.841 9.155C508.441 9.495 508.901 9.965 509.221 10.565C509.551 11.155 509.716 11.825 509.716 12.575ZM508.306 12.29C508.306 11.77 508.191 11.325 507.961 10.955C507.731 10.575 507.416 10.29 507.016 10.1C506.626 9.9 506.191 9.8 505.711 9.8C505.021 9.8 504.431 10.02 503.941 10.46C503.461 10.9 503.186 11.51 503.116 12.29H508.306ZM515.522 8.63C516.522 8.63 517.332 8.935 517.952 9.545C518.572 10.145 518.882 11.015 518.882 12.155V17H517.532V12.35C517.532 11.53 517.327 10.905 516.917 10.475C516.507 10.035 515.947 9.815 515.237 9.815C514.517 9.815 513.942 10.04 513.512 10.49C513.092 10.94 512.882 11.595 512.882 12.455V17H511.517V8.78H512.882V9.95C513.152 9.53 513.517 9.205 513.977 8.975C514.447 8.745 514.962 8.63 515.522 8.63ZM524.022 17.135C523.392 17.135 522.827 17.03 522.327 16.82C521.827 16.6 521.432 16.3 521.142 15.92C520.852 15.53 520.692 15.085 520.662 14.585H522.072C522.112 14.995 522.302 15.33 522.642 15.59C522.992 15.85 523.447 15.98 524.007 15.98C524.527 15.98 524.937 15.865 525.237 15.635C525.537 15.405 525.687 15.115 525.687 14.765C525.687 14.405 525.527 14.14 525.207 13.97C524.887 13.79 524.392 13.615 523.722 13.445C523.112 13.285 522.612 13.125 522.222 12.965C521.842 12.795 521.512 12.55 521.232 12.23C520.962 11.9 520.827 11.47 520.827 10.94C520.827 10.52 520.952 10.135 521.202 9.785C521.452 9.435 521.807 9.16 522.267 8.96C522.727 8.75 523.252 8.645 523.842 8.645C524.752 8.645 525.487 8.875 526.047 9.335C526.607 9.795 526.907 10.425 526.947 11.225H525.582C525.552 10.795 525.377 10.45 525.057 10.19C524.747 9.93 524.327 9.8 523.797 9.8C523.307 9.8 522.917 9.905 522.627 10.115C522.337 10.325 522.192 10.6 522.192 10.94C522.192 11.21 522.277 11.435 522.447 11.615C522.627 11.785 522.847 11.925 523.107 12.035C523.377 12.135 523.747 12.25 524.217 12.38C524.807 12.54 525.287 12.7 525.657 12.86C526.027 13.01 526.342 13.24 526.602 13.55C526.872 13.86 527.012 14.265 527.022 14.765C527.022 15.215 526.897 15.62 526.647 15.98C526.397 16.34 526.042 16.625 525.582 16.835C525.132 17.035 524.612 17.135 524.022 17.135ZM529.654 7.445C529.394 7.445 529.174 7.355 528.994 7.175C528.814 6.995 528.724 6.775 528.724 6.515C528.724 6.255 528.814 6.035 528.994 5.855C529.174 5.675 529.394 5.585 529.654 5.585C529.904 5.585 530.114 5.675 530.284 5.855C530.464 6.035 530.554 6.255 530.554 6.515C530.554 6.775 530.464 6.995 530.284 7.175C530.114 7.355 529.904 7.445 529.654 7.445ZM530.314 8.78V17H528.949V8.78H530.314ZM536.645 8.63C537.645 8.63 538.455 8.935 539.075 9.545C539.695 10.145 540.005 11.015 540.005 12.155V17H538.655V12.35C538.655 11.53 538.45 10.905 538.04 10.475C537.63 10.035 537.07 9.815 536.36 9.815C535.64 9.815 535.065 10.04 534.635 10.49C534.215 10.94 534.005 11.595 534.005 12.455V17H532.64V8.78H534.005V9.95C534.275 9.53 534.64 9.205 535.1 8.975C535.57 8.745 536.085 8.63 536.645 8.63ZM545.625 8.645C546.335 8.645 546.955 8.8 547.485 9.11C548.025 9.42 548.425 9.81 548.685 10.28V8.78H550.065V17.18C550.065 17.93 549.905 18.595 549.585 19.175C549.265 19.765 548.805 20.225 548.205 20.555C547.615 20.885 546.925 21.05 546.135 21.05C545.055 21.05 544.155 20.795 543.435 20.285C542.715 19.775 542.29 19.08 542.16 18.2H543.51C543.66 18.7 543.97 19.1 544.44 19.4C544.91 19.71 545.475 19.865 546.135 19.865C546.885 19.865 547.495 19.63 547.965 19.16C548.445 18.69 548.685 18.03 548.685 17.18V15.455C548.415 15.935 548.015 16.335 547.485 16.655C546.955 16.975 546.335 17.135 545.625 17.135C544.895 17.135 544.23 16.955 543.63 16.595C543.04 16.235 542.575 15.73 542.235 15.08C541.895 14.43 541.725 13.69 541.725 12.86C541.725 12.02 541.895 11.285 542.235 10.655C542.575 10.015 543.04 9.52 543.63 9.17C544.23 8.82 544.895 8.645 545.625 8.645ZM548.685 12.875C548.685 12.255 548.56 11.715 548.31 11.255C548.06 10.795 547.72 10.445 547.29 10.205C546.87 9.955 546.405 9.83 545.895 9.83C545.385 9.83 544.92 9.95 544.5 10.19C544.08 10.43 543.745 10.78 543.495 11.24C543.245 11.7 543.12 12.24 543.12 12.86C543.12 13.49 543.245 14.04 543.495 14.51C543.745 14.97 544.08 15.325 544.5 15.575C544.92 15.815 545.385 15.935 545.895 15.935C546.405 15.935 546.87 15.815 547.29 15.575C547.72 15.325 548.06 14.97 548.31 14.51C548.56 14.04 548.685 13.495 548.685 12.875Z" fill="#666666"/>
<path d="M11.0161 10.112C11.0161 11.04 10.6961 11.8133 10.0561 12.432C9.42679 13.04 8.46146 13.344 7.16013 13.344H5.01613V18H3.56013V6.848H7.16013C8.41879 6.848 9.37346 7.152 10.0241 7.76C10.6855 8.368 11.0161 9.152 11.0161 10.112ZM7.16013 12.144C7.97079 12.144 8.56813 11.968 8.95213 11.616C9.33613 11.264 9.52813 10.7627 9.52813 10.112C9.52813 8.736 8.73879 8.048 7.16013 8.048H5.01613V12.144H7.16013ZM16.6498 18.144C15.8284 18.144 15.0818 17.9573 14.4098 17.584C13.7484 17.2107 13.2258 16.6827 12.8418 16C12.4684 15.3067 12.2818 14.5067 12.2818 13.6C12.2818 12.704 12.4738 11.9147 12.8578 11.232C13.2524 10.5387 13.7858 10.0107 14.4578 9.648C15.1298 9.27467 15.8818 9.088 16.7138 9.088C17.5458 9.088 18.2978 9.27467 18.9698 9.648C19.6418 10.0107 20.1698 10.5333 20.5538 11.216C20.9484 11.8987 21.1458 12.6933 21.1458 13.6C21.1458 14.5067 20.9431 15.3067 20.5378 16C20.1431 16.6827 19.6044 17.2107 18.9218 17.584C18.2391 17.9573 17.4818 18.144 16.6498 18.144ZM16.6498 16.864C17.1724 16.864 17.6631 16.7413 18.1218 16.496C18.5804 16.2507 18.9484 15.8827 19.2258 15.392C19.5138 14.9013 19.6578 14.304 19.6578 13.6C19.6578 12.896 19.5191 12.2987 19.2418 11.808C18.9644 11.3173 18.6018 10.9547 18.1538 10.72C17.7058 10.4747 17.2204 10.352 16.6978 10.352C16.1644 10.352 15.6738 10.4747 15.2258 10.72C14.7884 10.9547 14.4364 11.3173 14.1698 11.808C13.9031 12.2987 13.7698 12.896 13.7698 13.6C13.7698 14.3147 13.8978 14.9173 14.1538 15.408C14.4204 15.8987 14.7724 16.2667 15.2098 16.512C15.6471 16.7467 16.1271 16.864 16.6498 16.864ZM34.7401 9.232L32.0041 18H30.5001L28.3881 11.04L26.2761 18H24.7721L22.0201 9.232H23.5081L25.5241 16.592L27.7001 9.232H29.1881L31.3161 16.608L33.3001 9.232H34.7401ZM44.1851 13.28C44.1851 13.5573 44.1691 13.8507 44.1371 14.16H37.1291C37.1825 15.024 37.4758 15.7013 38.0091 16.192C38.5531 16.672 39.2091 16.912 39.9771 16.912C40.6065 16.912 41.1291 16.768 41.5451 16.48C41.9718 16.1813 42.2705 15.7867 42.4411 15.296H44.0091C43.7745 16.1387 43.3051 16.8267 42.6011 17.36C41.8971 17.8827 41.0225 18.144 39.9771 18.144C39.1451 18.144 38.3985 17.9573 37.7371 17.584C37.0865 17.2107 36.5745 16.6827 36.2011 16C35.8278 15.3067 35.6411 14.5067 35.6411 13.6C35.6411 12.6933 35.8225 11.8987 36.1851 11.216C36.5478 10.5333 37.0545 10.0107 37.7051 9.648C38.3665 9.27467 39.1238 9.088 39.9771 9.088C40.8091 9.088 41.5451 9.26933 42.1851 9.632C42.8251 9.99467 43.3158 10.496 43.6571 11.136C44.0091 11.7653 44.1851 12.48 44.1851 13.28ZM42.6811 12.976C42.6811 12.4213 42.5585 11.9467 42.3131 11.552C42.0678 11.1467 41.7318 10.8427 41.3051 10.64C40.8891 10.4267 40.4251 10.32 39.9131 10.32C39.1771 10.32 38.5478 10.5547 38.0251 11.024C37.5131 11.4933 37.2198 12.144 37.1451 12.976H42.6811ZM47.563 10.656C47.819 10.1547 48.1817 9.76533 48.651 9.488C49.131 9.21067 49.7123 9.072 50.395 9.072V10.576H50.011C48.379 10.576 47.563 11.4613 47.563 13.232V18H46.107V9.232H47.563V10.656ZM60.0758 13.28C60.0758 13.5573 60.0598 13.8507 60.0278 14.16H53.0198C53.0731 15.024 53.3664 15.7013 53.8998 16.192C54.4438 16.672 55.0998 16.912 55.8678 16.912C56.4971 16.912 57.0198 16.768 57.4358 16.48C57.8624 16.1813 58.1611 15.7867 58.3318 15.296H59.8998C59.6651 16.1387 59.1958 16.8267 58.4918 17.36C57.7878 17.8827 56.9131 18.144 55.8678 18.144C55.0358 18.144 54.2891 17.9573 53.6278 17.584C52.9771 17.2107 52.4651 16.6827 52.0918 16C51.7184 15.3067 51.5318 14.5067 51.5318 13.6C51.5318 12.6933 51.7131 11.8987 52.0758 11.216C52.4384 10.5333 52.9451 10.0107 53.5958 9.648C54.2571 9.27467 55.0144 9.088 55.8678 9.088C56.6998 9.088 57.4358 9.26933 58.0758 9.632C58.7158 9.99467 59.2064 10.496 59.5478 11.136C59.8998 11.7653 60.0758 12.48 60.0758 13.28ZM58.5718 12.976C58.5718 12.4213 58.4491 11.9467 58.2038 11.552C57.9584 11.1467 57.6224 10.8427 57.1958 10.64C56.7798 10.4267 56.3158 10.32 55.8038 10.32C55.0678 10.32 54.4384 10.5547 53.9158 11.024C53.4038 11.4933 53.1104 12.144 53.0358 12.976H58.5718ZM61.4536 13.584C61.4536 12.688 61.635 11.904 61.9976 11.232C62.3603 10.5493 62.8563 10.0213 63.4856 9.648C64.1256 9.27467 64.8403 9.088 65.6296 9.088C66.3123 9.088 66.947 9.248 67.5336 9.568C68.1203 9.87733 68.5683 10.288 68.8776 10.8V6.16H70.3496V18H68.8776V16.352C68.5896 16.8747 68.163 17.3067 67.5976 17.648C67.0323 17.9787 66.371 18.144 65.6136 18.144C64.835 18.144 64.1256 17.952 63.4856 17.568C62.8563 17.184 62.3603 16.6453 61.9976 15.952C61.635 15.2587 61.4536 14.4693 61.4536 13.584ZM68.8776 13.6C68.8776 12.9387 68.7443 12.3627 68.4776 11.872C68.211 11.3813 67.8483 11.008 67.3896 10.752C66.9416 10.4853 66.4456 10.352 65.9016 10.352C65.3576 10.352 64.8616 10.48 64.4136 10.736C63.9656 10.992 63.6083 11.3653 63.3416 11.856C63.075 12.3467 62.9416 12.9227 62.9416 13.584C62.9416 14.256 63.075 14.8427 63.3416 15.344C63.6083 15.8347 63.9656 16.2133 64.4136 16.48C64.8616 16.736 65.3576 16.864 65.9016 16.864C66.4456 16.864 66.9416 16.736 67.3896 16.48C67.8483 16.2133 68.211 15.8347 68.4776 15.344C68.7443 14.8427 68.8776 14.2613 68.8776 13.6ZM78.5318 10.864C78.8304 10.3413 79.2678 9.91467 79.8438 9.584C80.4198 9.25333 81.0758 9.088 81.8118 9.088C82.6011 9.088 83.3104 9.27467 83.9398 9.648C84.5691 10.0213 85.0651 10.5493 85.4278 11.232C85.7904 11.904 85.9718 12.688 85.9718 13.584C85.9718 14.4693 85.7904 15.2587 85.4278 15.952C85.0651 16.6453 84.5637 17.184 83.9237 17.568C83.2944 17.952 82.5904 18.144 81.8118 18.144C81.0544 18.144 80.3878 17.9787 79.8118 17.648C79.2464 17.3173 78.8198 16.896 78.5318 16.384V18H77.0758V6.16H78.5318V10.864ZM84.4838 13.584C84.4838 12.9227 84.3504 12.3467 84.0838 11.856C83.8171 11.3653 83.4544 10.992 82.9958 10.736C82.5478 10.48 82.0518 10.352 81.5078 10.352C80.9744 10.352 80.4784 10.4853 80.0198 10.752C79.5718 11.008 79.2091 11.3867 78.9318 11.888C78.6651 12.3787 78.5318 12.9493 78.5318 13.6C78.5318 14.2613 78.6651 14.8427 78.9318 15.344C79.2091 15.8347 79.5718 16.2133 80.0198 16.48C80.4784 16.736 80.9744 16.864 81.5078 16.864C82.0518 16.864 82.5478 16.736 82.9958 16.48C83.4544 16.2133 83.8171 15.8347 84.0838 15.344C84.3504 14.8427 84.4838 14.256 84.4838 13.584ZM95.4403 9.232L90.1603 22.128H88.6562L90.3843 17.904L86.8483 9.232H88.4643L91.2163 16.336L93.9363 9.232H95.4403Z" fill="#B1B1B1"/>
<path d="M553.516 18.096C553.239 18.096 553.004 18 552.812 17.808C552.62 17.616 552.524 17.3813 552.524 17.104C552.524 16.8267 552.62 16.592 552.812 16.4C553.004 16.208 553.239 16.112 553.516 16.112C553.783 16.112 554.007 16.208 554.188 16.4C554.38 16.592 554.476 16.8267 554.476 17.104C554.476 17.3813 554.38 17.616 554.188 17.808C554.007 18 553.783 18.096 553.516 18.096Z" fill="#B1B1B1"/>
<path d="M170.993 18.096C170.716 18.096 170.481 18 170.289 17.808C170.097 17.616 170.001 17.3813 170.001 17.104C170.001 16.8267 170.097 16.592 170.289 16.4C170.481 16.208 170.716 16.112 170.993 16.112C171.26 16.112 171.484 16.208 171.665 16.4C171.857 16.592 171.953 16.8267 171.953 17.104C171.953 17.3813 171.857 17.616 171.665 17.808C171.484 18 171.26 18.096 170.993 18.096ZM184.746 15.52H179.882L178.986 18H177.45L181.482 6.912H183.162L187.178 18H185.642L184.746 15.52ZM184.33 14.336L182.314 8.704L180.298 14.336H184.33ZM190.391 6.16V18H188.935V6.16H190.391ZM194.329 6.16V18H192.873V6.16H194.329ZM202.532 10.656C202.788 10.1547 203.15 9.76533 203.62 9.488C204.1 9.21067 204.681 9.072 205.364 9.072V10.576H204.98C203.348 10.576 202.532 11.4613 202.532 13.232V18H201.076V9.232H202.532V10.656ZM207.797 7.808C207.519 7.808 207.285 7.712 207.093 7.52C206.901 7.328 206.805 7.09333 206.805 6.816C206.805 6.53867 206.901 6.304 207.093 6.112C207.285 5.92 207.519 5.824 207.797 5.824C208.063 5.824 208.287 5.92 208.469 6.112C208.661 6.304 208.757 6.53867 208.757 6.816C208.757 7.09333 208.661 7.328 208.469 7.52C208.287 7.712 208.063 7.808 207.797 7.808ZM208.501 9.232V18H207.045V9.232H208.501ZM214.598 9.088C215.355 9.088 216.017 9.25333 216.582 9.584C217.158 9.91467 217.585 10.3307 217.862 10.832V9.232H219.334V18.192C219.334 18.992 219.163 19.7013 218.822 20.32C218.481 20.9493 217.99 21.44 217.35 21.792C216.721 22.144 215.985 22.32 215.142 22.32C213.99 22.32 213.03 22.048 212.262 21.504C211.494 20.96 211.041 20.2187 210.902 19.28H212.342C212.502 19.8133 212.833 20.24 213.334 20.56C213.835 20.8907 214.438 21.056 215.142 21.056C215.942 21.056 216.593 20.8053 217.094 20.304C217.606 19.8027 217.862 19.0987 217.862 18.192V16.352C217.574 16.864 217.147 17.2907 216.582 17.632C216.017 17.9733 215.355 18.144 214.598 18.144C213.819 18.144 213.11 17.952 212.47 17.568C211.841 17.184 211.345 16.6453 210.982 15.952C210.619 15.2587 210.438 14.4693 210.438 13.584C210.438 12.688 210.619 11.904 210.982 11.232C211.345 10.5493 211.841 10.0213 212.47 9.648C213.11 9.27467 213.819 9.088 214.598 9.088ZM217.862 13.6C217.862 12.9387 217.729 12.3627 217.462 11.872C217.195 11.3813 216.833 11.008 216.374 10.752C215.926 10.4853 215.43 10.352 214.886 10.352C214.342 10.352 213.846 10.48 213.398 10.736C212.95 10.992 212.593 11.3653 212.326 11.856C212.059 12.3467 211.926 12.9227 211.926 13.584C211.926 14.256 212.059 14.8427 212.326 15.344C212.593 15.8347 212.95 16.2133 213.398 16.48C213.846 16.736 214.342 16.864 214.886 16.864C215.43 16.864 215.926 16.736 216.374 16.48C216.833 16.2133 217.195 15.8347 217.462 15.344C217.729 14.8427 217.862 14.2613 217.862 13.6ZM226.147 9.072C226.808 9.072 227.405 9.216 227.939 9.504C228.472 9.78133 228.888 10.2027 229.187 10.768C229.496 11.3333 229.651 12.0213 229.651 12.832V18H228.211V13.04C228.211 12.1653 227.992 11.4987 227.555 11.04C227.117 10.5707 226.52 10.336 225.763 10.336C224.995 10.336 224.381 10.576 223.923 11.056C223.475 11.536 223.251 12.2347 223.251 13.152V18H221.795V6.16H223.251V10.48C223.539 10.032 223.933 9.68533 224.435 9.44C224.947 9.19467 225.517 9.072 226.147 9.072ZM233.805 10.432V15.6C233.805 16.0267 233.896 16.3307 234.077 16.512C234.258 16.6827 234.573 16.768 235.021 16.768H236.093V18H234.781C233.97 18 233.362 17.8133 232.957 17.44C232.552 17.0667 232.349 16.4533 232.349 15.6V10.432H231.213V9.232H232.349V7.024H233.805V9.232H236.093V10.432H233.805ZM240.961 18.144C240.289 18.144 239.686 18.032 239.153 17.808C238.62 17.5733 238.198 17.2533 237.889 16.848C237.58 16.432 237.409 15.9573 237.377 15.424H238.881C238.924 15.8613 239.126 16.2187 239.489 16.496C239.862 16.7733 240.348 16.912 240.945 16.912C241.5 16.912 241.937 16.7893 242.257 16.544C242.577 16.2987 242.737 15.9893 242.737 15.616C242.737 15.232 242.566 14.9493 242.225 14.768C241.884 14.576 241.356 14.3893 240.641 14.208C239.99 14.0373 239.457 13.8667 239.041 13.696C238.636 13.5147 238.284 13.2533 237.985 12.912C237.697 12.56 237.553 12.1013 237.553 11.536C237.553 11.088 237.686 10.6773 237.953 10.304C238.22 9.93067 238.598 9.63733 239.089 9.424C239.58 9.2 240.14 9.088 240.769 9.088C241.74 9.088 242.524 9.33333 243.121 9.824C243.718 10.3147 244.038 10.9867 244.081 11.84H242.625C242.593 11.3813 242.406 11.0133 242.065 10.736C241.734 10.4587 241.286 10.32 240.721 10.32C240.198 10.32 239.782 10.432 239.473 10.656C239.164 10.88 239.009 11.1733 239.009 11.536C239.009 11.824 239.1 12.064 239.281 12.256C239.473 12.4373 239.708 12.5867 239.985 12.704C240.273 12.8107 240.668 12.9333 241.169 13.072C241.798 13.2427 242.31 13.4133 242.705 13.584C243.1 13.744 243.436 13.9893 243.713 14.32C244.001 14.6507 244.15 15.0827 244.161 15.616C244.161 16.096 244.028 16.528 243.761 16.912C243.494 17.296 243.116 17.6 242.625 17.824C242.145 18.0373 241.59 18.144 240.961 18.144ZM251.938 10.656C252.194 10.1547 252.557 9.76533 253.026 9.488C253.506 9.21067 254.087 9.072 254.77 9.072V10.576H254.386C252.754 10.576 251.938 11.4613 251.938 13.232V18H250.482V9.232H251.938V10.656ZM264.451 13.28C264.451 13.5573 264.435 13.8507 264.403 14.16H257.395C257.448 15.024 257.741 15.7013 258.275 16.192C258.819 16.672 259.475 16.912 260.243 16.912C260.872 16.912 261.395 16.768 261.811 16.48C262.237 16.1813 262.536 15.7867 262.707 15.296H264.275C264.04 16.1387 263.571 16.8267 262.867 17.36C262.163 17.8827 261.288 18.144 260.243 18.144C259.411 18.144 258.664 17.9573 258.003 17.584C257.352 17.2107 256.84 16.6827 256.467 16C256.093 15.3067 255.907 14.5067 255.907 13.6C255.907 12.6933 256.088 11.8987 256.451 11.216C256.813 10.5333 257.32 10.0107 257.971 9.648C258.632 9.27467 259.389 9.088 260.243 9.088C261.075 9.088 261.811 9.26933 262.451 9.632C263.091 9.99467 263.581 10.496 263.923 11.136C264.275 11.7653 264.451 12.48 264.451 13.28ZM262.947 12.976C262.947 12.4213 262.824 11.9467 262.579 11.552C262.333 11.1467 261.997 10.8427 261.571 10.64C261.155 10.4267 260.691 10.32 260.179 10.32C259.443 10.32 258.813 10.5547 258.291 11.024C257.779 11.4933 257.485 12.144 257.411 12.976H262.947ZM269.477 18.144C268.805 18.144 268.202 18.032 267.669 17.808C267.135 17.5733 266.714 17.2533 266.405 16.848C266.095 16.432 265.925 15.9573 265.893 15.424H267.397C267.439 15.8613 267.642 16.2187 268.005 16.496C268.378 16.7733 268.863 16.912 269.461 16.912C270.015 16.912 270.453 16.7893 270.773 16.544C271.093 16.2987 271.253 15.9893 271.253 15.616C271.253 15.232 271.082 14.9493 270.741 14.768C270.399 14.576 269.871 14.3893 269.157 14.208C268.506 14.0373 267.973 13.8667 267.557 13.696C267.151 13.5147 266.799 13.2533 266.501 12.912C266.213 12.56 266.069 12.1013 266.069 11.536C266.069 11.088 266.202 10.6773 266.469 10.304C266.735 9.93067 267.114 9.63733 267.605 9.424C268.095 9.2 268.655 9.088 269.285 9.088C270.255 9.088 271.039 9.33333 271.637 9.824C272.234 10.3147 272.554 10.9867 272.597 11.84H271.141C271.109 11.3813 270.922 11.0133 270.581 10.736C270.25 10.4587 269.802 10.32 269.237 10.32C268.714 10.32 268.298 10.432 267.989 10.656C267.679 10.88 267.525 11.1733 267.525 11.536C267.525 11.824 267.615 12.064 267.797 12.256C267.989 12.4373 268.223 12.5867 268.501 12.704C268.789 12.8107 269.183 12.9333 269.685 13.072C270.314 13.2427 270.826 13.4133 271.221 13.584C271.615 13.744 271.951 13.9893 272.229 14.32C272.517 14.6507 272.666 15.0827 272.677 15.616C272.677 16.096 272.543 16.528 272.277 16.912C272.01 17.296 271.631 17.6 271.141 17.824C270.661 18.0373 270.106 18.144 269.477 18.144ZM282.732 13.28C282.732 13.5573 282.716 13.8507 282.684 14.16H275.676C275.729 15.024 276.023 15.7013 276.556 16.192C277.1 16.672 277.756 16.912 278.524 16.912C279.153 16.912 279.676 16.768 280.092 16.48C280.519 16.1813 280.817 15.7867 280.988 15.296H282.556C282.321 16.1387 281.852 16.8267 281.148 17.36C280.444 17.8827 279.569 18.144 278.524 18.144C277.692 18.144 276.945 17.9573 276.284 17.584C275.633 17.2107 275.121 16.6827 274.748 16C274.375 15.3067 274.188 14.5067 274.188 13.6C274.188 12.6933 274.369 11.8987 274.732 11.216C275.095 10.5333 275.601 10.0107 276.252 9.648C276.913 9.27467 277.671 9.088 278.524 9.088C279.356 9.088 280.092 9.26933 280.732 9.632C281.372 9.99467 281.863 10.496 282.204 11.136C282.556 11.7653 282.732 12.48 282.732 13.28ZM281.228 12.976C281.228 12.4213 281.105 11.9467 280.86 11.552C280.615 11.1467 280.279 10.8427 279.852 10.64C279.436 10.4267 278.972 10.32 278.46 10.32C277.724 10.32 277.095 10.5547 276.572 11.024C276.06 11.4933 275.767 12.144 275.692 12.976H281.228ZM286.11 10.656C286.366 10.1547 286.729 9.76533 287.198 9.488C287.678 9.21067 288.259 9.072 288.942 9.072V10.576H288.558C286.926 10.576 286.11 11.4613 286.11 13.232V18H284.654V9.232H286.11V10.656ZM293.887 16.656L296.607 9.232H298.159L294.719 18H293.023L289.583 9.232H291.151L293.887 16.656ZM307.591 13.28C307.591 13.5573 307.575 13.8507 307.543 14.16H300.535C300.589 15.024 300.882 15.7013 301.415 16.192C301.959 16.672 302.615 16.912 303.383 16.912C304.013 16.912 304.535 16.768 304.951 16.48C305.378 16.1813 305.677 15.7867 305.847 15.296H307.415C307.181 16.1387 306.711 16.8267 306.007 17.36C305.303 17.8827 304.429 18.144 303.383 18.144C302.551 18.144 301.805 17.9573 301.143 17.584C300.493 17.2107 299.981 16.6827 299.607 16C299.234 15.3067 299.047 14.5067 299.047 13.6C299.047 12.6933 299.229 11.8987 299.591 11.216C299.954 10.5333 300.461 10.0107 301.111 9.648C301.773 9.27467 302.53 9.088 303.383 9.088C304.215 9.088 304.951 9.26933 305.591 9.632C306.231 9.99467 306.722 10.496 307.063 11.136C307.415 11.7653 307.591 12.48 307.591 13.28ZM306.087 12.976C306.087 12.4213 305.965 11.9467 305.719 11.552C305.474 11.1467 305.138 10.8427 304.711 10.64C304.295 10.4267 303.831 10.32 303.319 10.32C302.583 10.32 301.954 10.5547 301.431 11.024C300.919 11.4933 300.626 12.144 300.551 12.976H306.087ZM308.969 13.584C308.969 12.688 309.151 11.904 309.513 11.232C309.876 10.5493 310.372 10.0213 311.001 9.648C311.641 9.27467 312.356 9.088 313.145 9.088C313.828 9.088 314.463 9.248 315.049 9.568C315.636 9.87733 316.084 10.288 316.393 10.8V6.16H317.865V18H316.393V16.352C316.105 16.8747 315.679 17.3067 315.113 17.648C314.548 17.9787 313.887 18.144 313.129 18.144C312.351 18.144 311.641 17.952 311.001 17.568C310.372 17.184 309.876 16.6453 309.513 15.952C309.151 15.2587 308.969 14.4693 308.969 13.584ZM316.393 13.6C316.393 12.9387 316.26 12.3627 315.993 11.872C315.727 11.3813 315.364 11.008 314.905 10.752C314.457 10.4853 313.961 10.352 313.417 10.352C312.873 10.352 312.377 10.48 311.929 10.736C311.481 10.992 311.124 11.3653 310.857 11.856C310.591 12.3467 310.457 12.9227 310.457 13.584C310.457 14.256 310.591 14.8427 310.857 15.344C311.124 15.8347 311.481 16.2133 311.929 16.48C312.377 16.736 312.873 16.864 313.417 16.864C313.961 16.864 314.457 16.736 314.905 16.48C315.364 16.2133 315.727 15.8347 315.993 15.344C316.26 14.8427 316.393 14.2613 316.393 13.6ZM326.047 10.864C326.346 10.3413 326.783 9.91467 327.359 9.584C327.935 9.25333 328.591 9.088 329.327 9.088C330.117 9.088 330.826 9.27467 331.455 9.648C332.085 10.0213 332.581 10.5493 332.943 11.232C333.306 11.904 333.487 12.688 333.487 13.584C333.487 14.4693 333.306 15.2587 332.943 15.952C332.581 16.6453 332.079 17.184 331.439 17.568C330.81 17.952 330.106 18.144 329.327 18.144C328.57 18.144 327.903 17.9787 327.327 17.648C326.762 17.3173 326.335 16.896 326.047 16.384V18H324.591V6.16H326.047V10.864ZM331.999 13.584C331.999 12.9227 331.866 12.3467 331.599 11.856C331.333 11.3653 330.97 10.992 330.511 10.736C330.063 10.48 329.567 10.352 329.023 10.352C328.49 10.352 327.994 10.4853 327.535 10.752C327.087 11.008 326.725 11.3867 326.447 11.888C326.181 12.3787 326.047 12.9493 326.047 13.6C326.047 14.2613 326.181 14.8427 326.447 15.344C326.725 15.8347 327.087 16.2133 327.535 16.48C327.994 16.736 328.49 16.864 329.023 16.864C329.567 16.864 330.063 16.736 330.511 16.48C330.97 16.2133 331.333 15.8347 331.599 15.344C331.866 14.8427 331.999 14.256 331.999 13.584ZM342.956 9.232L337.676 22.128H336.172L337.9 17.904L334.364 9.232H335.98L338.732 16.336L341.452 9.232H342.956ZM357.277 6.848V18H355.821V12.944H350.141V18H348.685V6.848H350.141V11.744H355.821V6.848H357.277ZM359.219 13.584C359.219 12.688 359.401 11.904 359.763 11.232C360.126 10.5493 360.622 10.0213 361.251 9.648C361.891 9.27467 362.601 9.088 363.379 9.088C364.147 9.088 364.814 9.25333 365.379 9.584C365.945 9.91467 366.366 10.3307 366.643 10.832V9.232H368.115V18H366.643V16.368C366.355 16.88 365.923 17.3067 365.347 17.648C364.782 17.9787 364.121 18.144 363.363 18.144C362.585 18.144 361.881 17.952 361.251 17.568C360.622 17.184 360.126 16.6453 359.763 15.952C359.401 15.2587 359.219 14.4693 359.219 13.584ZM366.643 13.6C366.643 12.9387 366.51 12.3627 366.243 11.872C365.977 11.3813 365.614 11.008 365.155 10.752C364.707 10.4853 364.211 10.352 363.667 10.352C363.123 10.352 362.627 10.48 362.179 10.736C361.731 10.992 361.374 11.3653 361.107 11.856C360.841 12.3467 360.707 12.9227 360.707 13.584C360.707 14.256 360.841 14.8427 361.107 15.344C361.374 15.8347 361.731 16.2133 362.179 16.48C362.627 16.736 363.123 16.864 363.667 16.864C364.211 16.864 364.707 16.736 365.155 16.48C365.614 16.2133 365.977 15.8347 366.243 15.344C366.51 14.8427 366.643 14.2613 366.643 13.6ZM372.032 10.848C372.32 10.3467 372.746 9.93067 373.312 9.6C373.888 9.25867 374.554 9.088 375.312 9.088C376.09 9.088 376.794 9.27467 377.424 9.648C378.064 10.0213 378.565 10.5493 378.928 11.232C379.29 11.904 379.472 12.688 379.472 13.584C379.472 14.4693 379.29 15.2587 378.928 15.952C378.565 16.6453 378.064 17.184 377.424 17.568C376.794 17.952 376.09 18.144 375.312 18.144C374.565 18.144 373.904 17.9787 373.328 17.648C372.762 17.3067 372.33 16.8853 372.032 16.384V22.16H370.576V9.232H372.032V10.848ZM377.984 13.584C377.984 12.9227 377.85 12.3467 377.584 11.856C377.317 11.3653 376.954 10.992 376.496 10.736C376.048 10.48 375.552 10.352 375.008 10.352C374.474 10.352 373.978 10.4853 373.52 10.752C373.072 11.008 372.709 11.3867 372.432 11.888C372.165 12.3787 372.032 12.9493 372.032 13.6C372.032 14.2613 372.165 14.8427 372.432 15.344C372.709 15.8347 373.072 16.2133 373.52 16.48C373.978 16.736 374.474 16.864 375.008 16.864C375.552 16.864 376.048 16.736 376.496 16.48C376.954 16.2133 377.317 15.8347 377.584 15.344C377.85 14.8427 377.984 14.256 377.984 13.584ZM382.844 10.848C383.132 10.3467 383.559 9.93067 384.124 9.6C384.7 9.25867 385.367 9.088 386.124 9.088C386.903 9.088 387.607 9.27467 388.236 9.648C388.876 10.0213 389.378 10.5493 389.74 11.232C390.103 11.904 390.284 12.688 390.284 13.584C390.284 14.4693 390.103 15.2587 389.74 15.952C389.378 16.6453 388.876 17.184 388.236 17.568C387.607 17.952 386.903 18.144 386.124 18.144C385.378 18.144 384.716 17.9787 384.14 17.648C383.575 17.3067 383.143 16.8853 382.844 16.384V22.16H381.388V9.232H382.844V10.848ZM388.796 13.584C388.796 12.9227 388.663 12.3467 388.396 11.856C388.13 11.3653 387.767 10.992 387.308 10.736C386.86 10.48 386.364 10.352 385.82 10.352C385.287 10.352 384.791 10.4853 384.332 10.752C383.884 11.008 383.522 11.3867 383.244 11.888C382.978 12.3787 382.844 12.9493 382.844 13.6C382.844 14.2613 382.978 14.8427 383.244 15.344C383.522 15.8347 383.884 16.2133 384.332 16.48C384.791 16.736 385.287 16.864 385.82 16.864C386.364 16.864 386.86 16.736 387.308 16.48C387.767 16.2133 388.13 15.8347 388.396 15.344C388.663 14.8427 388.796 14.256 388.796 13.584ZM399.753 9.232L394.473 22.128H392.969L394.697 17.904L391.161 9.232H392.777L395.529 16.336L398.249 9.232H399.753ZM412.074 15.52H407.21L406.314 18H404.778L408.81 6.912H410.49L414.506 18H412.97L412.074 15.52ZM411.658 14.336L409.642 8.704L407.626 14.336H411.658ZM417.719 10.848C418.007 10.3467 418.434 9.93067 418.999 9.6C419.575 9.25867 420.242 9.088 420.999 9.088C421.778 9.088 422.482 9.27467 423.111 9.648C423.751 10.0213 424.253 10.5493 424.615 11.232C424.978 11.904 425.159 12.688 425.159 13.584C425.159 14.4693 424.978 15.2587 424.615 15.952C424.253 16.6453 423.751 17.184 423.111 17.568C422.482 17.952 421.778 18.144 420.999 18.144C420.253 18.144 419.591 17.9787 419.015 17.648C418.45 17.3067 418.018 16.8853 417.719 16.384V22.16H416.263V9.232H417.719V10.848ZM423.671 13.584C423.671 12.9227 423.538 12.3467 423.271 11.856C423.005 11.3653 422.642 10.992 422.183 10.736C421.735 10.48 421.239 10.352 420.695 10.352C420.162 10.352 419.666 10.4853 419.207 10.752C418.759 11.008 418.397 11.3867 418.119 11.888C417.853 12.3787 417.719 12.9493 417.719 13.6C417.719 14.2613 417.853 14.8427 418.119 15.344C418.397 15.8347 418.759 16.2133 419.207 16.48C419.666 16.736 420.162 16.864 420.695 16.864C421.239 16.864 421.735 16.736 422.183 16.48C422.642 16.2133 423.005 15.8347 423.271 15.344C423.538 14.8427 423.671 14.256 423.671 13.584ZM428.532 10.848C428.82 10.3467 429.246 9.93067 429.812 9.6C430.388 9.25867 431.054 9.088 431.812 9.088C432.59 9.088 433.294 9.27467 433.924 9.648C434.564 10.0213 435.065 10.5493 435.428 11.232C435.79 11.904 435.972 12.688 435.972 13.584C435.972 14.4693 435.79 15.2587 435.428 15.952C435.065 16.6453 434.564 17.184 433.924 17.568C433.294 17.952 432.59 18.144 431.812 18.144C431.065 18.144 430.404 17.9787 429.828 17.648C429.262 17.3067 428.83 16.8853 428.532 16.384V22.16H427.076V9.232H428.532V10.848ZM434.484 13.584C434.484 12.9227 434.35 12.3467 434.084 11.856C433.817 11.3653 433.454 10.992 432.996 10.736C432.548 10.48 432.052 10.352 431.508 10.352C430.974 10.352 430.478 10.4853 430.02 10.752C429.572 11.008 429.209 11.3867 428.932 11.888C428.665 12.3787 428.532 12.9493 428.532 13.6C428.532 14.2613 428.665 14.8427 428.932 15.344C429.209 15.8347 429.572 16.2133 430.02 16.48C430.478 16.736 430.974 16.864 431.508 16.864C432.052 16.864 432.548 16.736 432.996 16.48C433.454 16.2133 433.817 15.8347 434.084 15.344C434.35 14.8427 434.484 14.256 434.484 13.584ZM440.992 18.144C440.32 18.144 439.718 18.032 439.184 17.808C438.651 17.5733 438.23 17.2533 437.92 16.848C437.611 16.432 437.44 15.9573 437.408 15.424H438.912C438.955 15.8613 439.158 16.2187 439.52 16.496C439.894 16.7733 440.379 16.912 440.976 16.912C441.531 16.912 441.968 16.7893 442.288 16.544C442.608 16.2987 442.768 15.9893 442.768 15.616C442.768 15.232 442.598 14.9493 442.256 14.768C441.915 14.576 441.387 14.3893 440.672 14.208C440.022 14.0373 439.488 13.8667 439.072 13.696C438.667 13.5147 438.315 13.2533 438.016 12.912C437.728 12.56 437.584 12.1013 437.584 11.536C437.584 11.088 437.718 10.6773 437.984 10.304C438.251 9.93067 438.63 9.63733 439.12 9.424C439.611 9.2 440.171 9.088 440.8 9.088C441.771 9.088 442.555 9.33333 443.152 9.824C443.75 10.3147 444.07 10.9867 444.112 11.84H442.656C442.624 11.3813 442.438 11.0133 442.096 10.736C441.766 10.4587 441.318 10.32 440.752 10.32C440.23 10.32 439.814 10.432 439.504 10.656C439.195 10.88 439.04 11.1733 439.04 11.536C439.04 11.824 439.131 12.064 439.312 12.256C439.504 12.4373 439.739 12.5867 440.016 12.704C440.304 12.8107 440.699 12.9333 441.2 13.072C441.83 13.2427 442.342 13.4133 442.736 13.584C443.131 13.744 443.467 13.9893 443.744 14.32C444.032 14.6507 444.182 15.0827 444.192 15.616C444.192 16.096 444.059 16.528 443.792 16.912C443.526 17.296 443.147 17.6 442.656 17.824C442.176 18.0373 441.622 18.144 440.992 18.144ZM447.752 15.984L445.96 20.288H444.984L446.152 15.984H447.752ZM455.141 6.848V18H453.685V6.848H455.141ZM461.895 9.072C462.961 9.072 463.825 9.39733 464.487 10.048C465.148 10.688 465.479 11.616 465.479 12.832V18H464.039V13.04C464.039 12.1653 463.82 11.4987 463.383 11.04C462.945 10.5707 462.348 10.336 461.591 10.336C460.823 10.336 460.209 10.576 459.751 11.056C459.303 11.536 459.079 12.2347 459.079 13.152V18H457.623V9.232H459.079V10.48C459.367 10.032 459.756 9.68533 460.247 9.44C460.748 9.19467 461.297 9.072 461.895 9.072ZM467.313 13.6C467.313 12.6933 467.494 11.904 467.857 11.232C468.22 10.5493 468.721 10.0213 469.361 9.648C470.012 9.27467 470.753 9.088 471.585 9.088C472.662 9.088 473.548 9.34933 474.241 9.872C474.945 10.3947 475.409 11.12 475.633 12.048H474.065C473.916 11.5147 473.622 11.0933 473.185 10.784C472.758 10.4747 472.225 10.32 471.585 10.32C470.753 10.32 470.081 10.608 469.569 11.184C469.057 11.7493 468.801 12.5547 468.801 13.6C468.801 14.656 469.057 15.472 469.569 16.048C470.081 16.624 470.753 16.912 471.585 16.912C472.225 16.912 472.758 16.7627 473.185 16.464C473.612 16.1653 473.905 15.7387 474.065 15.184H475.633C475.398 16.08 474.929 16.8 474.225 17.344C473.521 17.8773 472.641 18.144 471.585 18.144C470.753 18.144 470.012 17.9573 469.361 17.584C468.721 17.2107 468.22 16.6827 467.857 16C467.494 15.3173 467.313 14.5173 467.313 13.6ZM478.04 18.096C477.762 18.096 477.528 18 477.336 17.808C477.144 17.616 477.048 17.3813 477.048 17.104C477.048 16.8267 477.144 16.592 477.336 16.4C477.528 16.208 477.762 16.112 478.04 16.112C478.306 16.112 478.53 16.208 478.712 16.4C478.904 16.592 479 16.8267 479 17.104C479 17.3813 478.904 17.616 478.712 17.808C478.53 18 478.306 18.096 478.04 18.096Z" fill="#B1B1B1"/>
</svg>
